<svg width="1133" height="435" viewBox="0 0 1133 435" xmlns="http://www.w3.org/2000/svg"><g fill="none" fill-rule="evenodd"><text font-family="Arial Black" font-size="58" font-weight="686" fill="#225E63" transform="translate(0 -8)"><tspan x="742" y="272">COMPLIANT</tspan></text><path d="M619.414 285.854l37.16-11.711-12.032-26.804c-8.945 11.046-17.758 25.323-25.128 38.515zm-12.656-122.692L533.89.823.448 31.112l147.786 403.247 284.494-89.666c-18.035-26.01-24.727-56.928-3.811-72.04 23.41-16.915 58.631 2.648 81.257 30.462 21.714-36.488 82.639-120.754 96.584-139.953z" fill="#225E63"/><path d="M517.33 118.117c22.33 0 40.43-17.073 40.43-38.134 0-21.06-18.1-38.133-40.43-38.133S476.9 58.923 476.9 79.983c0 21.06 18.1 38.134 40.43 38.134zm-33.08 16.54h66.16v172.75h-66.16v-172.75zm-32.662 50.415c.474.279.857.051.857-.494v-43.764c0-.551-.378-1.219-.873-1.483 0 0-8.677-5.655-35.159-7.23-1.414-.783-24.46-.898-30.856 0-96.214 7.715-99.783 77.324-99.783 80.503v16.911c0 2.076 0 73.244 99.78 79.554 9.748.742 28.848 0 30.855 0 22.98 0 38.906-6.92 38.906-6.92.507-.205.918-.825.918-1.37v-40.976c0-.552-.367-.747-.844-.457 0 0-7.142 5.741-38.55 8.804-8.903 1.002-13.127.532-16.337 0-44.531-7.489-46.651-40.116-46.651-40.116a21.152 21.152 0 0 1-.111-1.973v-12.499c0-.55.05-1.438.127-1.98 0 0 3.01-34.953 46.637-38.64h16.337c19.27 2.602 34.747 12.13 34.747 12.13zM102.262 306.721c0 .55.442.995.99.995h64.45c.548 0 .991-.45.991-.994v-50.134c0-.55.44-.967.995-.936 0 0 102.874 7.442 102.874-61.616 0-54.492-64.543-60.472-85.793-59.474-.427.02-83.5 0-83.5 0-.553 0-1.003.452-1.003.996l-.004 171.163zm65.284-89.36v-45.168h15.771s22.934 1.032 24.72 16.635c.417 1.22.316 8.857-.002 9.278-2.955 18.36-22.88 19.26-22.88 19.26l-17.61-.005z" fill="#FEFEFE"/><path d="M519.149 390.811c5.376 0 9.494 0 16.292-3.016 23.49-12.352 102.558-205.45 185.955-264.845.508-.38 1.19-.935 1.584-1.499.547-.783.569-1.582.569-1.582s0-3.983-12.365-3.983C636.94 113.862 559.734 269.5 519.149 331.08c-.507.678-3.3 0-3.3 0s-27.196-32.083-50.824-44.397c-.492-.257-3.18-1.076-5.97-.869-1.868 0-12.858 2.212-17.979 7.615-6.052 6.386-5.927 9.97-5.874 17.741.005.633.41 3.192 1.16 4.503 5.777 10.1 32.164 46.381 53.784 66.397 3.346 2.38 8.436 8.741 29.003 8.741z" fill="#2BBC5D"/><text font-family="Arial Black" font-size="188" font-weight="686" letter-spacing="-3.2" fill="#225E63" transform="translate(0 -8)"><tspan x="729" y="207">DS</tspan> <tspan x="1004.6" y="207">S</tspan></text></g></svg>